<svg id="visual" viewBox="0 0 900 600" width="900" height="600" xmlns="http://www.w3.org/2000/svg" xmlns:xlink="http://www.w3.org/1999/xlink" version="1.1"><g stroke-width="1" stroke-linejoin="bevel"><path d="M406 280.1L402 210.4L327 203.1Z" fill="#372770" stroke="#372770"></path><path d="M327 203.1L282 324.9L406 280.1Z" fill="#372770" stroke="#372770"></path><path d="M485 132.7L424 157.4L527 156.4Z" fill="#7346b6" stroke="#7346b6"></path><path d="M402 210.4L424 157.4L327 203.1Z" fill="#372770" stroke="#372770"></path><path d="M264 148.4L249 239.1L327 203.1Z" fill="#6640a8" stroke="#6640a8"></path><path d="M327 203.1L249 239.1L282 324.9Z" fill="#100e3a" stroke="#100e3a"></path><path d="M424 157.4L311 136.7L327 203.1Z" fill="#221b55" stroke="#221b55"></path><path d="M282 324.9L349 371.9L406 280.1Z" fill="#5a3a9a" stroke="#5a3a9a"></path><path d="M264 148.4L226 246.1L249 239.1Z" fill="#5a3a9a" stroke="#5a3a9a"></path><path d="M249 239.1L225 290.9L282 324.9Z" fill="#6640a8" stroke="#6640a8"></path><path d="M311 136.7L264 148.4L327 203.1Z" fill="#4e338c" stroke="#4e338c"></path><path d="M226 246.1L225 290.9L249 239.1Z" fill="#7346b6" stroke="#7346b6"></path><path d="M282 324.9L275 408.6L349 371.9Z" fill="#221b55" stroke="#221b55"></path><path d="M349 371.9L424 384.9L406 280.1Z" fill="#5a3a9a" stroke="#5a3a9a"></path><path d="M527 156.4L424 157.4L402 210.4Z" fill="#4e338c" stroke="#4e338c"></path><path d="M527 156.4L402 210.4L573 256.1Z" fill="#372770" stroke="#372770"></path><path d="M424 157.4L395 40.7L311 136.7Z" fill="#100e3a" stroke="#100e3a"></path><path d="M151 363.9L275 408.6L282 324.9Z" fill="#2c2162" stroke="#2c2162"></path><path d="M363 460.6L463 416.6L424 384.9Z" fill="#181447" stroke="#181447"></path><path d="M573 256.1L402 210.4L406 280.1Z" fill="#4e338c" stroke="#4e338c"></path><path d="M363 460.6L424 384.9L349 371.9Z" fill="#100e3a" stroke="#100e3a"></path><path d="M554 351.9L573 256.1L406 280.1Z" fill="#0b022e" stroke="#0b022e"></path><path d="M464 517.3L478 421.6L463 416.6Z" fill="#221b55" stroke="#221b55"></path><path d="M463 416.6L554 351.9L424 384.9Z" fill="#422d7e" stroke="#422d7e"></path><path d="M519 71.7L395 40.7L485 132.7Z" fill="#100e3a" stroke="#100e3a"></path><path d="M485 132.7L395 40.7L424 157.4Z" fill="#4e338c" stroke="#4e338c"></path><path d="M311 136.7L203 52.7L264 148.4Z" fill="#5a3a9a" stroke="#5a3a9a"></path><path d="M554 351.9L406 280.1L424 384.9Z" fill="#100e3a" stroke="#100e3a"></path><path d="M275 408.6L363 460.6L349 371.9Z" fill="#422d7e" stroke="#422d7e"></path><path d="M478 421.6L554 351.9L463 416.6Z" fill="#372770" stroke="#372770"></path><path d="M148 161.4L145 196.4L226 246.1Z" fill="#0b022e" stroke="#0b022e"></path><path d="M226 246.1L145 196.4L225 290.9Z" fill="#6640a8" stroke="#6640a8"></path><path d="M225 290.9L151 363.9L282 324.9Z" fill="#2c2162" stroke="#2c2162"></path><path d="M148 161.4L226 246.1L264 148.4Z" fill="#2c2162" stroke="#2c2162"></path><path d="M203 52.7L148 161.4L264 148.4Z" fill="#221b55" stroke="#221b55"></path><path d="M652 128.7L519 71.7L527 156.4Z" fill="#221b55" stroke="#221b55"></path><path d="M527 156.4L519 71.7L485 132.7Z" fill="#181447" stroke="#181447"></path><path d="M65 284.1L151 363.9L225 290.9Z" fill="#221b55" stroke="#221b55"></path><path d="M275 408.6L303 483.3L363 460.6Z" fill="#221b55" stroke="#221b55"></path><path d="M209 464.6L303 483.3L275 408.6Z" fill="#5a3a9a" stroke="#5a3a9a"></path><path d="M363 460.6L464 517.3L463 416.6Z" fill="#181447" stroke="#181447"></path><path d="M487 0L363 0L395 40.7Z" fill="#372770" stroke="#372770"></path><path d="M395 40.7L363 0L311 136.7Z" fill="#2c2162" stroke="#2c2162"></path><path d="M250 0L203 52.7L311 136.7Z" fill="#5a3a9a" stroke="#5a3a9a"></path><path d="M151 363.9L209 464.6L275 408.6Z" fill="#5a3a9a" stroke="#5a3a9a"></path><path d="M363 0L250 0L311 136.7Z" fill="#221b55" stroke="#221b55"></path><path d="M519 71.7L487 0L395 40.7Z" fill="#100e3a" stroke="#100e3a"></path><path d="M519 71.7L488 0L487 0Z" fill="#0b022e" stroke="#0b022e"></path><path d="M322 600L464 517.3L363 460.6Z" fill="#2c2162" stroke="#2c2162"></path><path d="M478 421.6L538 478.3L554 351.9Z" fill="#221b55" stroke="#221b55"></path><path d="M322 600L363 460.6L303 483.3Z" fill="#2c2162" stroke="#2c2162"></path><path d="M653 244.1L644 185.4L573 256.1Z" fill="#100e3a" stroke="#100e3a"></path><path d="M573 256.1L644 185.4L527 156.4Z" fill="#2c2162" stroke="#2c2162"></path><path d="M519 71.7L592 0L488 0Z" fill="#181447" stroke="#181447"></path><path d="M464 517.3L538 478.3L478 421.6Z" fill="#2c2162" stroke="#2c2162"></path><path d="M554 351.9L653 244.1L573 256.1Z" fill="#221b55" stroke="#221b55"></path><path d="M661 386.9L653 244.1L554 351.9Z" fill="#100e3a" stroke="#100e3a"></path><path d="M145 196.4L65 284.1L225 290.9Z" fill="#372770" stroke="#372770"></path><path d="M151 363.9L116 458.6L209 464.6Z" fill="#2c2162" stroke="#2c2162"></path><path d="M0 276.1L65 284.1L0 125.4Z" fill="#181447" stroke="#181447"></path><path d="M65 284.1L145 196.4L0 125.4Z" fill="#6640a8" stroke="#6640a8"></path><path d="M122 507.3L226 515.3L209 464.6Z" fill="#221b55" stroke="#221b55"></path><path d="M209 464.6L226 515.3L303 483.3Z" fill="#5a3a9a" stroke="#5a3a9a"></path><path d="M586 600L575 477.3L538 478.3Z" fill="#7346b6" stroke="#7346b6"></path><path d="M538 478.3L575 477.3L554 351.9Z" fill="#422d7e" stroke="#422d7e"></path><path d="M696 173.4L652 128.7L644 185.4Z" fill="#0b022e" stroke="#0b022e"></path><path d="M644 185.4L652 128.7L527 156.4Z" fill="#6640a8" stroke="#6640a8"></path><path d="M0 402.6L116 458.6L151 363.9Z" fill="#4e338c" stroke="#4e338c"></path><path d="M250 0L143 0L203 52.7Z" fill="#181447" stroke="#181447"></path><path d="M203 52.7L108 24.7L148 161.4Z" fill="#7346b6" stroke="#7346b6"></path><path d="M575 477.3L661 386.9L554 351.9Z" fill="#7346b6" stroke="#7346b6"></path><path d="M704 209.1L696 173.4L644 185.4Z" fill="#4e338c" stroke="#4e338c"></path><path d="M143 0L108 24.7L203 52.7Z" fill="#0b022e" stroke="#0b022e"></path><path d="M652 128.7L592 0L519 71.7Z" fill="#7346b6" stroke="#7346b6"></path><path d="M704 209.1L644 185.4L653 244.1Z" fill="#2c2162" stroke="#2c2162"></path><path d="M652 128.7L713 78.7L592 0Z" fill="#6640a8" stroke="#6640a8"></path><path d="M0 471.3L118 493.3L116 458.6Z" fill="#4e338c" stroke="#4e338c"></path><path d="M116 458.6L118 493.3L209 464.6Z" fill="#372770" stroke="#372770"></path><path d="M684 383.6L681 375.9L661 386.9Z" fill="#6640a8" stroke="#6640a8"></path><path d="M661 386.9L681 375.9L653 244.1Z" fill="#181447" stroke="#181447"></path><path d="M802 276.1L704 209.1L653 244.1Z" fill="#372770" stroke="#372770"></path><path d="M143 0L114 0L108 24.7Z" fill="#6640a8" stroke="#6640a8"></path><path d="M747 411.6L684 383.6L725 537.3Z" fill="#2c2162" stroke="#2c2162"></path><path d="M681 375.9L802 276.1L653 244.1Z" fill="#372770" stroke="#372770"></path><path d="M118 493.3L122 507.3L209 464.6Z" fill="#4e338c" stroke="#4e338c"></path><path d="M299 600L303 483.3L226 515.3Z" fill="#6640a8" stroke="#6640a8"></path><path d="M299 600L322 600L303 483.3Z" fill="#100e3a" stroke="#100e3a"></path><path d="M464 517.3L586 600L538 478.3Z" fill="#2c2162" stroke="#2c2162"></path><path d="M129 600L299 600L226 515.3Z" fill="#6640a8" stroke="#6640a8"></path><path d="M0 125.4L145 196.4L148 161.4Z" fill="#422d7e" stroke="#422d7e"></path><path d="M65 284.1L0 402.6L151 363.9Z" fill="#372770" stroke="#372770"></path><path d="M118 493.3L0 471.3L122 507.3Z" fill="#422d7e" stroke="#422d7e"></path><path d="M0 125.4L148 161.4L108 24.7Z" fill="#181447" stroke="#181447"></path><path d="M322 600L451 600L464 517.3Z" fill="#181447" stroke="#181447"></path><path d="M725 537.3L684 383.6L661 386.9Z" fill="#7346b6" stroke="#7346b6"></path><path d="M0 276.1L0 302.9L65 284.1Z" fill="#372770" stroke="#372770"></path><path d="M0 85.7L0 125.4L108 24.7Z" fill="#5a3a9a" stroke="#5a3a9a"></path><path d="M827 91.7L713 78.7L696 173.4Z" fill="#181447" stroke="#181447"></path><path d="M696 173.4L713 78.7L652 128.7Z" fill="#6640a8" stroke="#6640a8"></path><path d="M0 302.9L0 402.6L65 284.1Z" fill="#6640a8" stroke="#6640a8"></path><path d="M0 0L0 85.7L108 24.7Z" fill="#7346b6" stroke="#7346b6"></path><path d="M451 600L586 600L464 517.3Z" fill="#100e3a" stroke="#100e3a"></path><path d="M725 537.3L661 386.9L575 477.3Z" fill="#5a3a9a" stroke="#5a3a9a"></path><path d="M684 383.6L747 411.6L681 375.9Z" fill="#4e338c" stroke="#4e338c"></path><path d="M704 209.1L821 226.4L696 173.4Z" fill="#2c2162" stroke="#2c2162"></path><path d="M37 600L129 600L122 507.3Z" fill="#100e3a" stroke="#100e3a"></path><path d="M122 507.3L129 600L226 515.3Z" fill="#6640a8" stroke="#6640a8"></path><path d="M0 402.6L0 471.3L116 458.6Z" fill="#7346b6" stroke="#7346b6"></path><path d="M114 0L0 0L108 24.7Z" fill="#6640a8" stroke="#6640a8"></path><path d="M796 350.9L802 276.1L681 375.9Z" fill="#2c2162" stroke="#2c2162"></path><path d="M747 411.6L796 350.9L681 375.9Z" fill="#6640a8" stroke="#6640a8"></path><path d="M900 232.1L821 226.4L802 276.1Z" fill="#100e3a" stroke="#100e3a"></path><path d="M802 276.1L821 226.4L704 209.1Z" fill="#100e3a" stroke="#100e3a"></path><path d="M586 600L662 600L575 477.3Z" fill="#7346b6" stroke="#7346b6"></path><path d="M747 411.6L858 370.6L796 350.9Z" fill="#181447" stroke="#181447"></path><path d="M662 600L725 537.3L575 477.3Z" fill="#6640a8" stroke="#6640a8"></path><path d="M827 91.7L763 0L713 78.7Z" fill="#5a3a9a" stroke="#5a3a9a"></path><path d="M713 78.7L763 0L592 0Z" fill="#181447" stroke="#181447"></path><path d="M0 471.3L37 600L122 507.3Z" fill="#100e3a" stroke="#100e3a"></path><path d="M821 226.4L827 91.7L696 173.4Z" fill="#221b55" stroke="#221b55"></path><path d="M662 600L714 600L725 537.3Z" fill="#6640a8" stroke="#6640a8"></path><path d="M852 487.3L858 370.6L747 411.6Z" fill="#6640a8" stroke="#6640a8"></path><path d="M0 471.3L0 600L37 600Z" fill="#5a3a9a" stroke="#5a3a9a"></path><path d="M852 487.3L747 411.6L725 537.3Z" fill="#181447" stroke="#181447"></path><path d="M796 350.9L858 370.6L802 276.1Z" fill="#7346b6" stroke="#7346b6"></path><path d="M821 226.4L900 174.4L827 91.7Z" fill="#181447" stroke="#181447"></path><path d="M900 61.7L832 0L827 91.7Z" fill="#372770" stroke="#372770"></path><path d="M827 91.7L832 0L763 0Z" fill="#221b55" stroke="#221b55"></path><path d="M858 370.6L900 232.1L802 276.1Z" fill="#372770" stroke="#372770"></path><path d="M900 232.1L900 174.4L821 226.4Z" fill="#181447" stroke="#181447"></path><path d="M900 532.3L852 487.3L867 600Z" fill="#5a3a9a" stroke="#5a3a9a"></path><path d="M858 370.6L900 389.9L900 232.1Z" fill="#181447" stroke="#181447"></path><path d="M900 432.6L900 389.9L858 370.6Z" fill="#5a3a9a" stroke="#5a3a9a"></path><path d="M852 487.3L900 432.6L858 370.6Z" fill="#5a3a9a" stroke="#5a3a9a"></path><path d="M900 174.4L900 61.7L827 91.7Z" fill="#221b55" stroke="#221b55"></path><path d="M900 61.7L900 0L832 0Z" fill="#221b55" stroke="#221b55"></path><path d="M867 600L852 487.3L725 537.3Z" fill="#221b55" stroke="#221b55"></path><path d="M852 487.3L900 532.3L900 432.6Z" fill="#0b022e" stroke="#0b022e"></path><path d="M714 600L867 600L725 537.3Z" fill="#100e3a" stroke="#100e3a"></path><path d="M867 600L900 600L900 532.3Z" fill="#4e338c" stroke="#4e338c"></path></g></svg>