<svg id="visual" viewBox="0 0 960 540" width="960" height="540" xmlns="http://www.w3.org/2000/svg" xmlns:xlink="http://www.w3.org/1999/xlink" version="1.1"><rect x="0" y="0" width="960" height="540" fill="#140021"></rect><path d="M0 232L137 232L137 306L274 306L274 273L411 273L411 345L549 345L549 341L686 341L686 225L823 225L823 232L960 232L960 250L960 541L960 541L823 541L823 541L686 541L686 541L549 541L549 541L411 541L411 541L274 541L274 541L137 541L137 541L0 541Z" fill="#9900ff"></path><path d="M0 378L137 378L137 345L274 345L274 394L411 394L411 394L549 394L549 397L686 397L686 400L823 400L823 334L960 334L960 367L960 541L960 541L823 541L823 541L686 541L686 541L549 541L549 541L411 541L411 541L274 541L274 541L137 541L137 541L0 541Z" fill="#7700c6"></path><path d="M0 454L137 454L137 399L274 399L274 418L411 418L411 419L549 419L549 461L686 461L686 486L823 486L823 491L960 491L960 476L960 541L960 541L823 541L823 541L686 541L686 541L549 541L549 541L411 541L411 541L274 541L274 541L137 541L137 541L0 541Z" fill="#560090"></path></svg>